<svg width="563" height="883" viewBox="0 0 563 883" fill="none"
    xmlns="http://www.w3.org/2000/svg">
    <g clip-path="url(#clip0_17_204)">
        <rect x="181" y="250" width="85" height="88" fill="#EA526F"/>
        <rect x="186" y="255" width="75" height="78" stroke="#DDDDDD" stroke-opacity="0.5" stroke-width="10"/>
        <rect x="196.5" y="270" width="55" height="5" fill="white" fill-opacity="0.5"/>
        <rect x="196.5" y="283" width="55" height="5" fill="white" fill-opacity="0.5"/>
        <rect x="196.5" y="296" width="55" height="5" fill="white" fill-opacity="0.5"/>
    </g>
    <g clip-path="url(#clip1_17_204)">
        <rect x="181" y="118" width="85" height="88" fill="#4CB2E6"/>
        <rect x="186" y="123" width="75" height="78" stroke="#DDDDDD" stroke-opacity="0.5" stroke-width="10"/>
        <rect x="196.5" y="138" width="55" height="5" fill="white" fill-opacity="0.5"/>
        <rect x="196.5" y="151" width="55" height="5" fill="white" fill-opacity="0.5"/>
        <rect x="196.5" y="164" width="55" height="5" fill="white" fill-opacity="0.5"/>
    </g>
    <g clip-path="url(#clip2_17_204)">
        <rect x="294" y="134" width="85" height="88" fill="#AE6DD5"/>
        <rect x="299" y="139" width="75" height="78" stroke="#DDDDDD" stroke-opacity="0.5" stroke-width="10"/>
        <rect x="309.5" y="154" width="55" height="5" fill="white" fill-opacity="0.5"/>
        <rect x="309.5" y="167" width="55" height="5" fill="white" fill-opacity="0.5"/>
        <rect x="309.5" y="180" width="55" height="5" fill="white" fill-opacity="0.5"/>
    </g>
    <g clip-path="url(#clip3_17_204)">
        <rect x="430" y="46" width="85" height="88" fill="#AE6DD5"/>
        <rect x="435" y="51" width="75" height="78" stroke="#DDDDDD" stroke-opacity="0.5" stroke-width="10"/>
        <rect x="445.5" y="66" width="55" height="5" fill="white" fill-opacity="0.5"/>
        <rect x="445.5" y="79" width="55" height="5" fill="white" fill-opacity="0.5"/>
        <rect x="445.5" y="92" width="55" height="5" fill="white" fill-opacity="0.5"/>
    </g>
    <g clip-path="url(#clip4_17_204)">
        <rect x="299" width="85" height="88" fill="#EA526F"/>
        <rect x="304" y="5" width="75" height="78" stroke="#DDDDDD" stroke-opacity="0.5" stroke-width="10"/>
        <rect x="314.5" y="20" width="55" height="5" fill="white" fill-opacity="0.5"/>
        <rect x="314.5" y="33" width="55" height="5" fill="white" fill-opacity="0.5"/>
        <rect x="314.5" y="46" width="55" height="5" fill="white" fill-opacity="0.5"/>
    </g>
    <g clip-path="url(#clip5_17_204)">
        <rect x="139" width="85" height="88" fill="#AE6DD5"/>
        <rect x="144" y="5" width="75" height="78" stroke="#DDDDDD" stroke-opacity="0.5" stroke-width="10"/>
        <rect x="154.5" y="20" width="55" height="5" fill="white" fill-opacity="0.5"/>
        <rect x="154.5" y="33" width="55" height="5" fill="white" fill-opacity="0.5"/>
        <rect x="154.5" y="46" width="55" height="5" fill="white" fill-opacity="0.5"/>
    </g>
    <g clip-path="url(#clip6_17_204)">
        <rect x="239" y="795" width="85" height="88" fill="#EA526F"/>
        <rect x="244" y="800" width="75" height="78" stroke="#DDDDDD" stroke-opacity="0.5" stroke-width="10"/>
        <rect x="254.5" y="815" width="55" height="5" fill="white" fill-opacity="0.5"/>
        <rect x="254.5" y="828" width="55" height="5" fill="white" fill-opacity="0.5"/>
        <rect x="254.5" y="841" width="55" height="5" fill="white" fill-opacity="0.5"/>
    </g>
    <g clip-path="url(#clip7_17_204)">
        <rect x="139" y="795" width="85" height="88" fill="#EA526F"/>
        <rect x="144" y="800" width="75" height="78" stroke="#DDDDDD" stroke-opacity="0.5" stroke-width="10"/>
        <rect x="154.5" y="815" width="55" height="5" fill="white" fill-opacity="0.5"/>
        <rect x="154.5" y="828" width="55" height="5" fill="white" fill-opacity="0.5"/>
        <rect x="154.5" y="841" width="55" height="5" fill="white" fill-opacity="0.5"/>
    </g>
    <g clip-path="url(#clip8_17_204)">
        <rect x="345" y="795" width="85" height="88" fill="#EA526F"/>
        <rect x="350" y="800" width="75" height="78" stroke="#DDDDDD" stroke-opacity="0.5" stroke-width="10"/>
        <rect x="360.5" y="815" width="55" height="5" fill="white" fill-opacity="0.5"/>
        <rect x="360.5" y="828" width="55" height="5" fill="white" fill-opacity="0.5"/>
        <rect x="360.5" y="841" width="55" height="5" fill="white" fill-opacity="0.5"/>
    </g>
    <g clip-path="url(#clip9_17_204)">
        <rect x="299" y="250" width="85" height="88" fill="#4CB2E6"/>
        <rect x="304" y="255" width="75" height="78" stroke="#DDDDDD" stroke-opacity="0.5" stroke-width="10"/>
        <rect x="314.5" y="270" width="55" height="5" fill="white" fill-opacity="0.5"/>
        <rect x="314.5" y="283" width="55" height="5" fill="white" fill-opacity="0.5"/>
        <rect x="314.5" y="296" width="55" height="5" fill="white" fill-opacity="0.5"/>
    </g>
    <g clip-path="url(#clip10_17_204)">
        <rect x="407" y="206" width="85" height="88" fill="#FF8A5B"/>
        <rect x="412" y="211" width="75" height="78" stroke="#DDDDDD" stroke-opacity="0.5" stroke-width="10"/>
        <rect x="422.5" y="226" width="55" height="5" fill="white" fill-opacity="0.5"/>
        <rect x="422.5" y="239" width="55" height="5" fill="white" fill-opacity="0.5"/>
        <rect x="422.5" y="252" width="55" height="5" fill="white" fill-opacity="0.5"/>
    </g>
    <g filter="url(#filter0_i_17_204)">
        <path d="M10 384H552L327 751H284.5H247L10 384Z" fill="#D9D9D9"/>
    </g>
    <rect y="306" width="563" height="89" rx="4" fill="#D9D9D9"/>
    <g clip-path="url(#clip11_17_204)">
        <rect x="31" y="106" width="85" height="88" fill="#EA526F"/>
        <rect x="36" y="111" width="75" height="78" stroke="#DDDDDD" stroke-opacity="0.5" stroke-width="10"/>
        <rect x="46.5" y="126" width="55" height="5" fill="white" fill-opacity="0.5"/>
        <rect x="46.5" y="139" width="55" height="5" fill="white" fill-opacity="0.5"/>
        <rect x="46.5" y="152" width="55" height="5" fill="white" fill-opacity="0.5"/>
    </g>
    <g clip-path="url(#clip12_17_204)">
        <rect x="73" y="206" width="85" height="88" fill="#FF8A5B"/>
        <rect x="78" y="211" width="75" height="78" stroke="#DDDDDD" stroke-opacity="0.5" stroke-width="10"/>
        <rect x="88.5" y="226" width="55" height="5" fill="white" fill-opacity="0.5"/>
        <rect x="88.5" y="239" width="55" height="5" fill="white" fill-opacity="0.5"/>
        <rect x="88.5" y="252" width="55" height="5" fill="white" fill-opacity="0.5"/>
    </g>
    <defs>
        <filter id="filter0_i_17_204" x="-40" y="384" width="592" height="367" filterUnits="userSpaceOnUse" color-interpolation-filters="sRGB">
            <feFlood flood-opacity="0" result="BackgroundImageFix"/>
            <feBlend mode="normal" in="SourceGraphic" in2="BackgroundImageFix" result="shape"/>
            <feColorMatrix in="SourceAlpha" type="matrix" values="0 0 0 0 0 0 0 0 0 0 0 0 0 0 0 0 0 0 127 0" result="hardAlpha"/>
            <feOffset dx="-50"/>
            <feGaussianBlur stdDeviation="50"/>
            <feComposite in2="hardAlpha" operator="arithmetic" k2="-1" k3="1"/>
            <feColorMatrix type="matrix" values="0 0 0 0 0 0 0 0 0 0 0 0 0 0 0 0 0 0 0.2 0"/>
            <feBlend mode="normal" in2="shape" result="effect1_innerShadow_17_204"/>
        </filter>
        <clipPath id="clip0_17_204">
            <rect width="85" height="88" fill="white" transform="translate(181 250)"/>
        </clipPath>
        <clipPath id="clip1_17_204">
            <rect width="85" height="88" fill="white" transform="translate(181 118)"/>
        </clipPath>
        <clipPath id="clip2_17_204">
            <rect width="85" height="88" fill="white" transform="translate(294 134)"/>
        </clipPath>
        <clipPath id="clip3_17_204">
            <rect width="85" height="88" fill="white" transform="translate(430 46)"/>
        </clipPath>
        <clipPath id="clip4_17_204">
            <rect width="85" height="88" fill="white" transform="translate(299)"/>
        </clipPath>
        <clipPath id="clip5_17_204">
            <rect width="85" height="88" fill="white" transform="translate(139)"/>
        </clipPath>
        <clipPath id="clip6_17_204">
            <rect width="85" height="88" fill="white" transform="translate(239 795)"/>
        </clipPath>
        <clipPath id="clip7_17_204">
            <rect width="85" height="88" fill="white" transform="translate(139 795)"/>
        </clipPath>
        <clipPath id="clip8_17_204">
            <rect width="85" height="88" fill="white" transform="translate(345 795)"/>
        </clipPath>
        <clipPath id="clip9_17_204">
            <rect width="85" height="88" fill="white" transform="translate(299 250)"/>
        </clipPath>
        <clipPath id="clip10_17_204">
            <rect width="85" height="88" fill="white" transform="translate(407 206)"/>
        </clipPath>
        <clipPath id="clip11_17_204">
            <rect width="85" height="88" fill="white" transform="translate(31 106)"/>
        </clipPath>
        <clipPath id="clip12_17_204">
            <rect width="85" height="88" fill="white" transform="translate(73 206)"/>
        </clipPath>
    </defs>
</svg>
    