<svg width="494" height="491" viewBox="0 0 494 491" fill="none"
    xmlns="http://www.w3.org/2000/svg">
    <g opacity="0.8">
        <g clip-path="url(#clip0_17_354)">
            <rect x="30" y="21" width="86.6667" height="88" fill="#4CB2E6"/>
            <rect x="35" y="26" width="76.6667" height="78" stroke="#DDDDDD" stroke-opacity="0.5" stroke-width="10"/>
            <rect x="45.5" y="41" width="55" height="5" fill="white" fill-opacity="0.5"/>
            <rect x="45.5" y="54" width="55" height="5" fill="white" fill-opacity="0.5"/>
            <rect x="45.5" y="67" width="55" height="5" fill="white" fill-opacity="0.5"/>
        </g>
        <g clip-path="url(#clip1_17_354)">
            <rect x="136.667" y="21" width="86.6667" height="88" fill="#47AFE2"/>
            <rect x="141.667" y="26" width="76.6667" height="78" stroke="#DDDDDD" stroke-opacity="0.5" stroke-width="10"/>
            <rect x="152.167" y="41" width="55" height="5" fill="white" fill-opacity="0.5"/>
            <rect x="152.167" y="54" width="55" height="5" fill="white" fill-opacity="0.5"/>
            <rect x="152.167" y="67" width="55" height="5" fill="white" fill-opacity="0.5"/>
        </g>
        <g clip-path="url(#clip2_17_354)">
            <rect x="243.333" y="21" width="86.6667" height="88" fill="#47AFE2"/>
            <rect x="248.333" y="26" width="76.6667" height="78" stroke="#DDDDDD" stroke-opacity="0.5" stroke-width="10"/>
            <rect x="258.833" y="41" width="55" height="5" fill="white" fill-opacity="0.5"/>
            <rect x="258.833" y="54" width="55" height="5" fill="white" fill-opacity="0.5"/>
            <rect x="258.833" y="67" width="55" height="5" fill="white" fill-opacity="0.5"/>
        </g>
        <g opacity="0.9">
            <g clip-path="url(#clip3_17_354)">
                <rect x="30" y="129" width="86.6667" height="88" fill="#4CB2E6"/>
                <rect x="35" y="134" width="76.6667" height="78" stroke="#DDDDDD" stroke-opacity="0.5" stroke-width="10"/>
                <rect x="45.5" y="149" width="55" height="5" fill="white" fill-opacity="0.5"/>
                <rect x="45.5" y="162" width="55" height="5" fill="white" fill-opacity="0.5"/>
                <rect x="45.5" y="175" width="55" height="5" fill="white" fill-opacity="0.5"/>
            </g>
            <g clip-path="url(#clip4_17_354)">
                <rect x="136.667" y="129" width="86.6667" height="88" fill="#4CB2E6"/>
                <rect x="141.667" y="134" width="76.6667" height="78" stroke="#DDDDDD" stroke-opacity="0.5" stroke-width="10"/>
                <rect x="152.167" y="149" width="55" height="5" fill="white" fill-opacity="0.5"/>
                <rect x="152.167" y="162" width="55" height="5" fill="white" fill-opacity="0.5"/>
                <rect x="152.167" y="175" width="55" height="5" fill="white" fill-opacity="0.5"/>
            </g>
            <g clip-path="url(#clip5_17_354)">
                <rect x="243.333" y="129" width="86.6667" height="88" fill="#4CB2E6"/>
                <rect x="248.333" y="134" width="76.6667" height="78" stroke="#DDDDDD" stroke-opacity="0.5" stroke-width="10"/>
                <rect x="258.833" y="149" width="55" height="5" fill="white" fill-opacity="0.5"/>
                <rect x="258.833" y="162" width="55" height="5" fill="white" fill-opacity="0.5"/>
                <rect x="258.833" y="175" width="55" height="5" fill="white" fill-opacity="0.5"/>
            </g>
        </g>
        <g opacity="0.8">
            <g clip-path="url(#clip6_17_354)">
                <rect x="30" y="237" width="86.6667" height="88" fill="#FF8A5B"/>
                <rect x="35" y="242" width="76.6667" height="78" stroke="#DDDDDD" stroke-opacity="0.5" stroke-width="10"/>
                <rect x="45.5" y="257" width="55" height="5" fill="white" fill-opacity="0.5"/>
                <rect x="45.5" y="270" width="55" height="5" fill="white" fill-opacity="0.5"/>
                <rect x="45.5" y="283" width="55" height="5" fill="white" fill-opacity="0.5"/>
            </g>
            <g clip-path="url(#clip7_17_354)">
                <rect x="136.667" y="237" width="86.6667" height="88" fill="#FF8A5B"/>
                <rect x="141.667" y="242" width="76.6667" height="78" stroke="#DDDDDD" stroke-opacity="0.5" stroke-width="10"/>
                <rect x="152.167" y="257" width="55" height="5" fill="white" fill-opacity="0.5"/>
                <rect x="152.167" y="270" width="55" height="5" fill="white" fill-opacity="0.5"/>
                <rect x="152.167" y="283" width="55" height="5" fill="white" fill-opacity="0.5"/>
            </g>
            <g clip-path="url(#clip8_17_354)">
                <rect x="243.333" y="237" width="86.6667" height="88" fill="#FF8A5B"/>
                <rect x="248.333" y="242" width="76.6667" height="78" stroke="#DDDDDD" stroke-opacity="0.5" stroke-width="10"/>
                <rect x="258.833" y="257" width="55" height="5" fill="white" fill-opacity="0.5"/>
                <rect x="258.833" y="270" width="55" height="5" fill="white" fill-opacity="0.5"/>
                <rect x="258.833" y="283" width="55" height="5" fill="white" fill-opacity="0.5"/>
            </g>
        </g>
        <g opacity="0.7">
            <g clip-path="url(#clip9_17_354)">
                <rect x="30" y="345" width="86.6667" height="88" fill="#AE6DD5"/>
                <rect x="35" y="350" width="76.6667" height="78" stroke="#DDDDDD" stroke-opacity="0.5" stroke-width="10"/>
                <rect x="45.5" y="365" width="55" height="5" fill="white" fill-opacity="0.5"/>
                <rect x="45.5" y="378" width="55" height="5" fill="white" fill-opacity="0.5"/>
                <rect x="45.5" y="391" width="55" height="5" fill="white" fill-opacity="0.5"/>
            </g>
            <g clip-path="url(#clip10_17_354)">
                <rect x="136.667" y="345" width="86.6667" height="88" fill="#AE6DD5"/>
                <rect x="141.667" y="350" width="76.6667" height="78" stroke="#DDDDDD" stroke-opacity="0.5" stroke-width="10"/>
                <rect x="152.167" y="365" width="55" height="5" fill="white" fill-opacity="0.5"/>
                <rect x="152.167" y="378" width="55" height="5" fill="white" fill-opacity="0.5"/>
                <rect x="152.167" y="391" width="55" height="5" fill="white" fill-opacity="0.5"/>
            </g>
            <g clip-path="url(#clip11_17_354)">
                <rect x="243.333" y="345" width="86.6667" height="88" fill="#AE6DD5"/>
                <rect x="248.333" y="350" width="76.6667" height="78" stroke="#DDDDDD" stroke-opacity="0.5" stroke-width="10"/>
                <rect x="258.833" y="365" width="55" height="5" fill="white" fill-opacity="0.5"/>
                <rect x="258.833" y="378" width="55" height="5" fill="white" fill-opacity="0.5"/>
                <rect x="258.833" y="391" width="55" height="5" fill="white" fill-opacity="0.5"/>
            </g>
        </g>
    </g>
    <g filter="url(#filter0_i_17_354)">
        <rect x="251.194" y="270.822" width="32" height="33" transform="rotate(-45 251.194 270.822)" fill="#B8B8B8"/>
    </g>
    <circle cx="179.777" cy="176.777" r="113" transform="rotate(-45 179.777 176.777)" fill="#47AFE2" fill-opacity="0.5" stroke="#232D45" stroke-width="24"/>
    <path d="M153.967 202.586C189.114 237.733 263.361 219.765 228.213 254.912C217.253 265.872 151.284 275.563 116.137 240.416C80.9899 205.269 91.7419 143.896 101.995 133.643C137.142 98.496 118.82 167.439 153.967 202.586Z" fill="white" fill-opacity="0.2"/>
    <g filter="url(#filter1_i_17_354)">
        <path d="M271.701 304.056C269.748 302.103 269.748 298.937 271.701 296.985L299.985 268.701C301.937 266.748 305.103 266.748 307.056 268.701L395.091 356.735L409.233 370.877L419.486 381.131C421.439 383.083 421.439 386.249 419.486 388.202L391.202 416.486C389.249 418.439 386.083 418.439 384.131 416.486L271.701 304.056Z" fill="#EB853C"/>
    </g>
    <defs>
        <filter id="filter0_i_17_354" x="241.194" y="248.194" width="55.9619" height="45.9619" filterUnits="userSpaceOnUse" color-interpolation-filters="sRGB">
            <feFlood flood-opacity="0" result="BackgroundImageFix"/>
            <feBlend mode="normal" in="SourceGraphic" in2="BackgroundImageFix" result="shape"/>
            <feColorMatrix in="SourceAlpha" type="matrix" values="0 0 0 0 0 0 0 0 0 0 0 0 0 0 0 0 0 0 127 0" result="hardAlpha"/>
            <feOffset dx="-10"/>
            <feGaussianBlur stdDeviation="5"/>
            <feComposite in2="hardAlpha" operator="arithmetic" k2="-1" k3="1"/>
            <feColorMatrix type="matrix" values="0 0 0 0 0 0 0 0 0 0 0 0 0 0 0 0 0 0 0.1 0"/>
            <feBlend mode="normal" in2="shape" result="effect1_innerShadow_17_354"/>
        </filter>
        <filter id="filter1_i_17_354" x="250.236" y="267.236" width="170.714" height="150.714" filterUnits="userSpaceOnUse" color-interpolation-filters="sRGB">
            <feFlood flood-opacity="0" result="BackgroundImageFix"/>
            <feBlend mode="normal" in="SourceGraphic" in2="BackgroundImageFix" result="shape"/>
            <feColorMatrix in="SourceAlpha" type="matrix" values="0 0 0 0 0 0 0 0 0 0 0 0 0 0 0 0 0 0 127 0" result="hardAlpha"/>
            <feOffset dx="-20"/>
            <feGaussianBlur stdDeviation="10"/>
            <feComposite in2="hardAlpha" operator="arithmetic" k2="-1" k3="1"/>
            <feColorMatrix type="matrix" values="0 0 0 0 0 0 0 0 0 0 0 0 0 0 0 0 0 0 0.2 0"/>
            <feBlend mode="normal" in2="shape" result="effect1_innerShadow_17_354"/>
        </filter>
        <clipPath id="clip0_17_354">
            <rect width="86.6667" height="88" fill="white" transform="translate(30 21)"/>
        </clipPath>
        <clipPath id="clip1_17_354">
            <rect width="86.6667" height="88" fill="white" transform="translate(136.667 21)"/>
        </clipPath>
        <clipPath id="clip2_17_354">
            <rect width="86.6667" height="88" fill="white" transform="translate(243.333 21)"/>
        </clipPath>
        <clipPath id="clip3_17_354">
            <rect width="86.6667" height="88" fill="white" transform="translate(30 129)"/>
        </clipPath>
        <clipPath id="clip4_17_354">
            <rect width="86.6667" height="88" fill="white" transform="translate(136.667 129)"/>
        </clipPath>
        <clipPath id="clip5_17_354">
            <rect width="86.6667" height="88" fill="white" transform="translate(243.333 129)"/>
        </clipPath>
        <clipPath id="clip6_17_354">
            <rect width="86.6667" height="88" fill="white" transform="translate(30 237)"/>
        </clipPath>
        <clipPath id="clip7_17_354">
            <rect width="86.6667" height="88" fill="white" transform="translate(136.667 237)"/>
        </clipPath>
        <clipPath id="clip8_17_354">
            <rect width="86.6667" height="88" fill="white" transform="translate(243.333 237)"/>
        </clipPath>
        <clipPath id="clip9_17_354">
            <rect width="86.6667" height="88" fill="white" transform="translate(30 345)"/>
        </clipPath>
        <clipPath id="clip10_17_354">
            <rect width="86.6667" height="88" fill="white" transform="translate(136.667 345)"/>
        </clipPath>
        <clipPath id="clip11_17_354">
            <rect width="86.6667" height="88" fill="white" transform="translate(243.333 345)"/>
        </clipPath>
    </defs>
</svg>
    