<svg width="516" height="600" viewBox="0 0 516 600" fill="none"
    xmlns="http://www.w3.org/2000/svg">
    <path d="M510.184 336.563C510.184 389.763 497.317 455.164 459.086 507.237C420.892 559.26 357.305 598.094 255.592 598.094C153.881 598.094 91.456 559.262 54.4196 507.249C17.3432 455.18 5.62622 389.779 5.62622 336.563C5.62622 323.238 7.0283 314.805 9.60559 310.095C10.8746 307.776 12.3928 306.426 14.1182 305.789C15.8582 305.147 17.9512 305.177 20.4595 305.896C25.5205 307.348 31.8959 311.493 39.5785 317.552C46.1798 322.757 53.6491 329.294 61.9636 336.57C63.2904 337.731 64.6388 338.911 66.0085 340.107C105.732 374.802 163.249 423.146 233.618 423.146C268.809 423.146 303.804 411.057 336.449 394.667C366.981 379.338 395.531 360.207 420.319 343.596C422.035 342.447 423.733 341.309 425.413 340.185C438.393 331.5 450.249 323.67 460.742 317.633C471.252 311.586 480.303 307.393 487.681 305.915C495.025 304.444 500.503 305.69 504.22 310.247C508.028 314.917 510.184 323.277 510.184 336.563Z" fill="url(#paint0_linear_17_421)" stroke="url(#paint1_linear_17_421)" stroke-width="2"/>
    <g filter="url(#filter0_i_17_421)">
        <path d="M515.81 333.093C515.81 388.024 400.342 432.555 257.905 432.555C115.468 432.555 0 388.024 0 333.093C0 278.163 115.468 254.265 257.905 254.265C400.342 254.265 515.81 278.163 515.81 333.093Z" fill="#BC5F1C"/>
    </g>
    <path d="M510.81 333.093C510.81 344.938 504.605 356.779 492.174 368.113C479.74 379.45 461.471 389.888 438.472 398.758C392.507 416.484 328.669 427.555 257.905 427.555C187.141 427.555 123.302 416.484 77.3377 398.758C54.3388 389.888 36.0695 379.45 23.6362 368.113C11.2051 356.779 5 344.938 5 333.093C5 321.385 11.0661 310.919 23.3018 301.577C35.6262 292.166 53.8152 284.243 76.865 277.901C122.911 265.232 186.876 259.265 257.905 259.265C328.934 259.265 392.899 265.232 438.945 277.901C461.995 284.243 480.184 292.166 492.508 301.577C504.744 310.919 510.81 321.385 510.81 333.093Z" stroke="#D16F28" stroke-width="10"/>
    <g clip-path="url(#clip0_17_421)">
        <rect x="108" width="86.6667" height="88" fill="#EA526F"/>
        <rect x="113" y="5" width="76.6667" height="78" stroke="#DDDDDD" stroke-opacity="0.5" stroke-width="10"/>
        <rect x="123.5" y="20" width="55" height="5" fill="white" fill-opacity="0.5"/>
        <rect x="123.5" y="33" width="55" height="5" fill="white" fill-opacity="0.5"/>
        <rect x="123.5" y="46" width="55" height="5" fill="white" fill-opacity="0.5"/>
    </g>
    <g clip-path="url(#clip1_17_421)">
        <rect x="214.667" width="86.6667" height="88" fill="#EA526F"/>
        <rect x="219.667" y="5" width="76.6667" height="78" stroke="#DDDDDD" stroke-opacity="0.5" stroke-width="10"/>
        <rect x="230.167" y="20" width="55" height="5" fill="white" fill-opacity="0.5"/>
        <rect x="230.167" y="33" width="55" height="5" fill="white" fill-opacity="0.5"/>
        <rect x="230.167" y="46" width="55" height="5" fill="white" fill-opacity="0.5"/>
    </g>
    <g clip-path="url(#clip2_17_421)">
        <rect x="321.333" width="86.6667" height="88" fill="#EA526F"/>
        <rect x="326.333" y="5" width="76.6667" height="78" stroke="#DDDDDD" stroke-opacity="0.5" stroke-width="10"/>
        <rect x="336.833" y="20" width="55" height="5" fill="white" fill-opacity="0.5"/>
        <rect x="336.833" y="33" width="55" height="5" fill="white" fill-opacity="0.5"/>
        <rect x="336.833" y="46" width="55" height="5" fill="white" fill-opacity="0.5"/>
    </g>
    <g clip-path="url(#clip3_17_421)">
        <rect x="108" y="111" width="86.6667" height="88" fill="#4CB2E6"/>
        <rect x="113" y="116" width="76.6667" height="78" stroke="#DDDDDD" stroke-opacity="0.5" stroke-width="10"/>
        <rect x="123.5" y="131" width="55" height="5" fill="white" fill-opacity="0.5"/>
        <rect x="123.5" y="144" width="55" height="5" fill="white" fill-opacity="0.5"/>
        <rect x="123.5" y="157" width="55" height="5" fill="white" fill-opacity="0.5"/>
    </g>
    <g clip-path="url(#clip4_17_421)">
        <rect x="214.667" y="111" width="86.6667" height="88" fill="#4CB2E6"/>
        <rect x="219.667" y="116" width="76.6667" height="78" stroke="#DDDDDD" stroke-opacity="0.5" stroke-width="10"/>
        <rect x="230.167" y="131" width="55" height="5" fill="white" fill-opacity="0.5"/>
        <rect x="230.167" y="144" width="55" height="5" fill="white" fill-opacity="0.5"/>
        <rect x="230.167" y="157" width="55" height="5" fill="white" fill-opacity="0.5"/>
    </g>
    <g clip-path="url(#clip5_17_421)">
        <rect x="321.333" y="111" width="86.6667" height="88" fill="#4CB2E6"/>
        <rect x="326.333" y="116" width="76.6667" height="78" stroke="#DDDDDD" stroke-opacity="0.5" stroke-width="10"/>
        <rect x="336.833" y="131" width="55" height="5" fill="white" fill-opacity="0.5"/>
        <rect x="336.833" y="144" width="55" height="5" fill="white" fill-opacity="0.5"/>
        <rect x="336.833" y="157" width="55" height="5" fill="white" fill-opacity="0.5"/>
    </g>
    <g clip-path="url(#clip6_17_421)">
        <rect x="123" y="222" width="76.6667" height="73" fill="#FF8A5B"/>
        <rect x="128" y="227" width="66.6667" height="63" stroke="#DDDDDD" stroke-opacity="0.5" stroke-width="10"/>
        <rect x="133.5" y="238.222" width="50" height="5" fill="white" fill-opacity="0.5"/>
        <rect x="133.5" y="251.222" width="50" height="5" fill="white" fill-opacity="0.5"/>
        <rect x="133.5" y="264.222" width="50" height="5" fill="white" fill-opacity="0.5"/>
    </g>
    <g clip-path="url(#clip7_17_421)">
        <rect x="219.667" y="222" width="76.6667" height="73" fill="#FF8A5B"/>
        <rect x="224.667" y="227" width="66.6667" height="63" stroke="#DDDDDD" stroke-opacity="0.5" stroke-width="10"/>
        <rect x="230.167" y="238.222" width="50" height="5" fill="white" fill-opacity="0.5"/>
        <rect x="230.167" y="251.222" width="50" height="5" fill="white" fill-opacity="0.5"/>
        <rect x="230.167" y="264.222" width="50" height="5" fill="white" fill-opacity="0.5"/>
    </g>
    <g clip-path="url(#clip8_17_421)">
        <rect x="316.333" y="222" width="76.6667" height="73" fill="#FF8A5B"/>
        <rect x="321.333" y="227" width="66.6667" height="63" stroke="#DDDDDD" stroke-opacity="0.5" stroke-width="10"/>
        <rect x="326.833" y="238.222" width="50" height="5" fill="white" fill-opacity="0.5"/>
        <rect x="326.833" y="251.222" width="50" height="5" fill="white" fill-opacity="0.5"/>
        <rect x="326.833" y="264.222" width="50" height="5" fill="white" fill-opacity="0.5"/>
    </g>
    <g clip-path="url(#clip9_17_421)">
        <rect x="136.5" y="318" width="67.6667" height="68" fill="#AE6DD5"/>
        <rect x="141.5" y="323" width="57.6667" height="58" stroke="#DDDDDD" stroke-opacity="0.5" stroke-width="10"/>
        <rect x="152.5" y="338" width="35" height="5" fill="white" fill-opacity="0.5"/>
        <rect x="152.5" y="351" width="35" height="5" fill="white" fill-opacity="0.5"/>
        <rect x="152.5" y="364" width="35" height="5" fill="white" fill-opacity="0.5"/>
    </g>
    <g clip-path="url(#clip10_17_421)">
        <rect x="224.167" y="318" width="67.6667" height="68" fill="#AE6DD5"/>
        <rect x="229.167" y="323" width="57.6667" height="58" stroke="#DDDDDD" stroke-opacity="0.5" stroke-width="10"/>
        <rect x="240.167" y="338" width="35" height="5" fill="white" fill-opacity="0.5"/>
        <rect x="240.167" y="351" width="35" height="5" fill="white" fill-opacity="0.5"/>
        <rect x="240.167" y="364" width="35" height="5" fill="white" fill-opacity="0.5"/>
    </g>
    <g clip-path="url(#clip11_17_421)">
        <rect x="311.833" y="318" width="67.6667" height="68" fill="#AE6DD5"/>
        <rect x="316.833" y="323" width="57.6667" height="58" stroke="#DDDDDD" stroke-opacity="0.5" stroke-width="10"/>
        <rect x="327.833" y="338" width="35" height="5" fill="white" fill-opacity="0.5"/>
        <rect x="327.833" y="351" width="35" height="5" fill="white" fill-opacity="0.5"/>
        <rect x="327.833" y="364" width="35" height="5" fill="white" fill-opacity="0.5"/>
    </g>
    <defs>
        <filter id="filter0_i_17_421" x="-50" y="204.265" width="565.81" height="228.29" filterUnits="userSpaceOnUse" color-interpolation-filters="sRGB">
            <feFlood flood-opacity="0" result="BackgroundImageFix"/>
            <feBlend mode="normal" in="SourceGraphic" in2="BackgroundImageFix" result="shape"/>
            <feColorMatrix in="SourceAlpha" type="matrix" values="0 0 0 0 0 0 0 0 0 0 0 0 0 0 0 0 0 0 127 0" result="hardAlpha"/>
            <feOffset dx="-50" dy="-50"/>
            <feGaussianBlur stdDeviation="25"/>
            <feComposite in2="hardAlpha" operator="arithmetic" k2="-1" k3="1"/>
            <feColorMatrix type="matrix" values="0 0 0 0 0 0 0 0 0 0 0 0 0 0 0 0 0 0 0.25 0"/>
            <feBlend mode="normal" in2="shape" result="effect1_innerShadow_17_421"/>
        </filter>
        <linearGradient id="paint0_linear_17_421" x1="457.984" y1="477.659" x2="46.2611" y2="468.407" gradientUnits="userSpaceOnUse">
            <stop stop-color="#EB853C"/>
            <stop offset="0.604167" stop-color="#EB853C" stop-opacity="0.69"/>
            <stop offset="1" stop-color="#EB853C" stop-opacity="0.38"/>
        </linearGradient>
        <linearGradient id="paint1_linear_17_421" x1="37.0089" y1="451.059" x2="483.427" y2="451.059" gradientUnits="userSpaceOnUse">
            <stop stop-color="#EB853C" stop-opacity="0.14"/>
            <stop offset="0.984375" stop-color="#EB853C"/>
        </linearGradient>
        <clipPath id="clip0_17_421">
            <rect width="86.6667" height="88" fill="white" transform="translate(108)"/>
        </clipPath>
        <clipPath id="clip1_17_421">
            <rect width="86.6667" height="88" fill="white" transform="translate(214.667)"/>
        </clipPath>
        <clipPath id="clip2_17_421">
            <rect width="86.6667" height="88" fill="white" transform="translate(321.333)"/>
        </clipPath>
        <clipPath id="clip3_17_421">
            <rect width="86.6667" height="88" fill="white" transform="translate(108 111)"/>
        </clipPath>
        <clipPath id="clip4_17_421">
            <rect width="86.6667" height="88" fill="white" transform="translate(214.667 111)"/>
        </clipPath>
        <clipPath id="clip5_17_421">
            <rect width="86.6667" height="88" fill="white" transform="translate(321.333 111)"/>
        </clipPath>
        <clipPath id="clip6_17_421">
            <rect width="76.6667" height="73" fill="white" transform="translate(123 222)"/>
        </clipPath>
        <clipPath id="clip7_17_421">
            <rect width="76.6667" height="73" fill="white" transform="translate(219.667 222)"/>
        </clipPath>
        <clipPath id="clip8_17_421">
            <rect width="76.6667" height="73" fill="white" transform="translate(316.333 222)"/>
        </clipPath>
        <clipPath id="clip9_17_421">
            <rect width="67.6667" height="68" fill="white" transform="translate(136.5 318)"/>
        </clipPath>
        <clipPath id="clip10_17_421">
            <rect width="67.6667" height="68" fill="white" transform="translate(224.167 318)"/>
        </clipPath>
        <clipPath id="clip11_17_421">
            <rect width="67.6667" height="68" fill="white" transform="translate(311.833 318)"/>
        </clipPath>
    </defs>
</svg>
    