<svg width="250" height="444" viewBox="0 0 250 444" fill="none"
    xmlns="http://www.w3.org/2000/svg">
    <rect x="5" y="5" width="240" height="434" rx="30" fill="white" stroke="black" stroke-width="10"/>
    <g clip-path="url(#clip0_17_7)">
        <rect x="30" y="20" width="85" height="88" fill="#4CB2E6"/>
        <rect x="35" y="25" width="75" height="78" stroke="#DDDDDD" stroke-opacity="0.5" stroke-width="10"/>
        <rect x="45.5" y="40" width="55" height="5" fill="white" fill-opacity="0.5"/>
        <rect x="45.5" y="53" width="55" height="5" fill="white" fill-opacity="0.5"/>
        <rect x="45.5" y="66" width="55" height="5" fill="white" fill-opacity="0.5"/>
    </g>
    <g clip-path="url(#clip1_17_7)">
        <rect x="135" y="20" width="85" height="88" fill="#FF8A5B"/>
        <rect x="140" y="25" width="75" height="78" stroke="#DDDDDD" stroke-opacity="0.5" stroke-width="10"/>
        <rect x="150.5" y="40" width="55" height="5" fill="white" fill-opacity="0.5"/>
        <rect x="150.5" y="53" width="55" height="5" fill="white" fill-opacity="0.5"/>
        <rect x="150.5" y="66" width="55" height="5" fill="white" fill-opacity="0.5"/>
    </g>
    <g opacity="0.9">
        <g clip-path="url(#clip2_17_7)">
            <rect x="30" y="128" width="85" height="88" fill="#4CB2E6"/>
            <rect x="35" y="133" width="75" height="78" stroke="#DDDDDD" stroke-opacity="0.5" stroke-width="10"/>
            <rect x="45.5" y="148" width="55" height="5" fill="white" fill-opacity="0.5"/>
            <rect x="45.5" y="161" width="55" height="5" fill="white" fill-opacity="0.5"/>
            <rect x="45.5" y="174" width="55" height="5" fill="white" fill-opacity="0.5"/>
        </g>
        <g clip-path="url(#clip3_17_7)">
            <rect x="135" y="128" width="85" height="88" fill="#AE6DD5"/>
            <rect x="140" y="133" width="75" height="78" stroke="#DDDDDD" stroke-opacity="0.5" stroke-width="10"/>
            <rect x="150.5" y="148" width="55" height="5" fill="white" fill-opacity="0.5"/>
            <rect x="150.5" y="161" width="55" height="5" fill="white" fill-opacity="0.5"/>
            <rect x="150.5" y="174" width="55" height="5" fill="white" fill-opacity="0.5"/>
        </g>
    </g>
    <g opacity="0.8">
        <g clip-path="url(#clip4_17_7)">
            <rect x="30" y="236" width="85" height="88" fill="#FF8A5B"/>
            <rect x="35" y="241" width="75" height="78" stroke="#DDDDDD" stroke-opacity="0.5" stroke-width="10"/>
            <rect x="45.5" y="256" width="55" height="5" fill="white" fill-opacity="0.5"/>
            <rect x="45.5" y="269" width="55" height="5" fill="white" fill-opacity="0.5"/>
            <rect x="45.5" y="282" width="55" height="5" fill="white" fill-opacity="0.5"/>
        </g>
        <g clip-path="url(#clip5_17_7)">
            <rect x="135" y="236" width="85" height="88" fill="#EA526F"/>
            <rect x="140" y="241" width="75" height="78" stroke="#DDDDDD" stroke-opacity="0.5" stroke-width="10"/>
            <rect x="150.5" y="256" width="55" height="5" fill="white" fill-opacity="0.5"/>
            <rect x="150.5" y="269" width="55" height="5" fill="white" fill-opacity="0.5"/>
            <rect x="150.5" y="282" width="55" height="5" fill="white" fill-opacity="0.5"/>
        </g>
    </g>
    <g opacity="0.7">
        <g clip-path="url(#clip6_17_7)">
            <rect x="30" y="344" width="85" height="88" fill="#AE6DD5"/>
            <rect x="35" y="349" width="75" height="78" stroke="#DDDDDD" stroke-opacity="0.5" stroke-width="10"/>
            <rect x="45.5" y="364" width="55" height="5" fill="white" fill-opacity="0.5"/>
            <rect x="45.5" y="377" width="55" height="5" fill="white" fill-opacity="0.5"/>
            <rect x="45.5" y="390" width="55" height="5" fill="white" fill-opacity="0.5"/>
        </g>
        <g clip-path="url(#clip7_17_7)">
            <rect x="135" y="344" width="85" height="88" fill="#FF8A5B"/>
            <rect x="140" y="349" width="75" height="78" stroke="#DDDDDD" stroke-opacity="0.5" stroke-width="10"/>
            <rect x="150.5" y="364" width="55" height="5" fill="white" fill-opacity="0.5"/>
            <rect x="150.5" y="377" width="55" height="5" fill="white" fill-opacity="0.5"/>
            <rect x="150.5" y="390" width="55" height="5" fill="white" fill-opacity="0.5"/>
        </g>
    </g>
    <defs>
        <clipPath id="clip0_17_7">
            <rect width="85" height="88" fill="white" transform="translate(30 20)"/>
        </clipPath>
        <clipPath id="clip1_17_7">
            <rect width="85" height="88" fill="white" transform="translate(135 20)"/>
        </clipPath>
        <clipPath id="clip2_17_7">
            <rect width="85" height="88" fill="white" transform="translate(30 128)"/>
        </clipPath>
        <clipPath id="clip3_17_7">
            <rect width="85" height="88" fill="white" transform="translate(135 128)"/>
        </clipPath>
        <clipPath id="clip4_17_7">
            <rect width="85" height="88" fill="white" transform="translate(30 236)"/>
        </clipPath>
        <clipPath id="clip5_17_7">
            <rect width="85" height="88" fill="white" transform="translate(135 236)"/>
        </clipPath>
        <clipPath id="clip6_17_7">
            <rect width="85" height="88" fill="white" transform="translate(30 344)"/>
        </clipPath>
        <clipPath id="clip7_17_7">
            <rect width="85" height="88" fill="white" transform="translate(135 344)"/>
        </clipPath>
    </defs>
</svg>
    